<svg width="172" height="33" viewBox="0 0 172 33" fill="#F2EDE4" xmlns="http://www.w3.org/2000/svg">
<path d="M10.6446 32.9932C8.47715 32.9932 6.59871 32.5838 5.00926 31.765C3.41981 30.9301 2.18358 29.8143 1.30055 28.4175C0.433576 27.0207 9.00179e-05 25.4874 9.00179e-05 23.8177V9.1755C9.00179e-05 7.48973 0.433576 5.95647 1.30055 4.57573C2.18358 3.17895 3.41981 2.07115 5.00926 1.25234C6.59871 0.417478 8.47715 4.65289e-05 10.6446 4.65289e-05H18.062C20.2294 4.65289e-05 22.1079 0.417478 23.6973 1.25234C25.3028 2.07115 26.5391 3.17895 27.4061 4.57573C28.273 5.95647 28.7065 7.48973 28.7065 9.1755V23.8177C28.7065 25.4874 28.273 27.0207 27.4061 28.4175C26.5391 29.8143 25.3028 30.9301 23.6973 31.765C22.1079 32.5838 20.2294 32.9932 18.062 32.9932H10.6446ZM9.97027 22.0838H21.4095V19.5792H12.3304L20.8556 4.28674L19.8682 2.16748H9.56087V4.72023H17.7008L9.17555 20.0127L9.97027 22.0838ZM39.1583 32.9932C36.9909 32.9932 35.1125 32.5838 33.523 31.765C31.9336 30.9301 30.6973 29.8143 29.8143 28.4175C28.9473 27.0207 28.5138 25.4874 28.5138 23.8177V9.1755C28.5138 7.48973 28.9473 5.95647 29.8143 4.57573C30.6973 3.17895 31.9336 2.07115 33.523 1.25234C35.1125 0.417478 36.9909 4.65289e-05 39.1583 4.65289e-05H46.5758C48.7432 4.65289e-05 50.6216 0.417478 52.2111 1.25234C53.8166 2.07115 55.0528 3.17895 55.9198 4.57573C56.7868 5.95647 57.2203 7.48973 57.2203 9.1755V23.8177C57.2203 25.4874 56.7868 27.0207 55.9198 28.4175C55.0528 29.8143 53.8166 30.9301 52.2111 31.765C50.6216 32.5838 48.7432 32.9932 46.5758 32.9932H39.1583ZM40.6033 22.0838H47.0574L49.5138 21.7948L51.0551 20.2776L51.3923 18.2065V2.16748H48.8395V17.9416L48.4783 19.2902L46.9129 19.531H40.7478L39.1583 19.2902L38.8212 17.8452V2.16748H36.3166V18.2065L36.6056 20.2776L38.171 21.7948L40.6033 22.0838ZM67.6721 32.9932C65.5047 32.9932 63.6262 32.5838 62.0368 31.765C60.4473 30.9301 59.2111 29.8143 58.3281 28.4175C57.4611 27.0207 57.0276 25.4874 57.0276 23.8177V9.1755C57.0276 7.48973 57.4611 5.95647 58.3281 4.57573C59.2111 3.17895 60.4473 2.07115 62.0368 1.25234C63.6262 0.417478 65.5047 4.65289e-05 67.6721 4.65289e-05H75.0895C77.257 4.65289e-05 79.1354 0.417478 80.7249 1.25234C82.3304 2.07115 83.5666 3.17895 84.4336 4.57573C85.3005 5.95647 85.734 7.48973 85.734 9.1755V23.8177C85.734 25.4874 85.3005 27.0207 84.4336 28.4175C83.5666 29.8143 82.3304 30.9301 80.7249 31.765C79.1354 32.5838 77.257 32.9932 75.0895 32.9932H67.6721ZM64.8785 22.0838H67.4313V4.98514L69.3097 4.67206H75.0895L76.7512 4.93697L76.9921 6.35784V22.0838H79.5689V6.02069L79.2317 3.99775L77.6905 2.45647L75.234 2.16748H69.2134L64.8785 2.76954V22.0838ZM96.1859 32.9932C94.0184 32.9932 92.14 32.5838 90.5505 31.765C88.9611 30.9301 87.7249 29.8143 86.8418 28.4175C85.9749 27.0207 85.5414 25.4874 85.5414 23.8177V9.1755C85.5414 7.48973 85.9749 5.95647 86.8418 4.57573C87.7249 3.17895 88.9611 2.07115 90.5505 1.25234C92.14 0.417478 94.0184 4.65289e-05 96.1859 4.65289e-05H103.603C105.771 4.65289e-05 107.649 0.417478 109.239 1.25234C110.844 2.07115 112.08 3.17895 112.947 4.57573C113.814 5.95647 114.248 7.48973 114.248 9.1755V23.8177C114.248 25.4874 113.814 27.0207 112.947 28.4175C112.08 29.8143 110.844 30.9301 109.239 31.765C107.649 32.5838 105.771 32.9932 103.603 32.9932H96.1859ZM94.2593 22.0838H108.179V19.531H102.52V4.72023H108.179V2.16748H94.2593V4.72023H99.9427V19.531H94.2593V22.0838ZM124.7 32.9932C122.532 32.9932 120.654 32.5838 119.064 31.765C117.475 30.9301 116.239 29.8143 115.356 28.4175C114.489 27.0207 114.055 25.4874 114.055 23.8177V9.1755C114.055 7.48973 114.489 5.95647 115.356 4.57573C116.239 3.17895 117.475 2.07115 119.064 1.25234C120.654 0.417478 122.532 4.65289e-05 124.7 4.65289e-05H132.117C134.284 4.65289e-05 136.163 0.417478 137.752 1.25234C139.358 2.07115 140.594 3.17895 141.461 4.57573C142.328 5.95647 142.762 7.48973 142.762 9.1755V23.8177C142.762 25.4874 142.328 27.0207 141.461 28.4175C140.594 29.8143 139.358 30.9301 137.752 31.765C136.163 32.5838 134.284 32.9932 132.117 32.9932H124.7ZM126.723 22.0838H132.743L135.176 21.7948L136.741 20.2776L137.078 18.2065V11.8728H130.094V14.4496H134.525V17.8452C134.445 18.1021 134.389 18.3429 134.357 18.5677C134.325 18.7925 134.268 19.0333 134.188 19.2902L132.599 19.531H126.771L125.302 19.2902L124.965 17.7489V6.35784L125.205 5.0333L126.771 4.67206H133.032L135.513 5.08147L135.994 2.50463L133.201 2.16748H126.723L124.266 2.5528L122.725 4.09408L122.388 6.11702V18.2065L122.725 20.2776L124.314 21.7948L126.723 22.0838ZM153.213 32.9932C151.046 32.9932 149.168 32.5838 147.578 31.765C145.989 30.9301 144.752 29.8143 143.869 28.4175C143.002 27.0207 142.569 25.4874 142.569 23.8177V9.1755C142.569 7.48973 143.002 5.95647 143.869 4.57573C144.752 3.17895 145.989 2.07115 147.578 1.25234C149.168 0.417478 151.046 4.65289e-05 153.213 4.65289e-05H160.631C162.798 4.65289e-05 164.677 0.417478 166.266 1.25234C167.872 2.07115 169.108 3.17895 169.975 4.57573C170.842 5.95647 171.275 7.48973 171.275 9.1755V23.8177C171.275 25.4874 170.842 27.0207 169.975 28.4175C169.108 29.8143 167.872 30.9301 166.266 31.765C164.677 32.5838 162.798 32.9932 160.631 32.9932H153.213ZM154.803 22.0838H161.257L163.737 21.7948L165.255 20.2776L165.592 18.2065V6.06885L165.255 4.04592L163.737 2.50463L161.257 2.16748H154.803L152.346 2.50463L150.805 4.04592L150.516 6.06885V18.2065L150.805 20.2776L152.395 21.7948L154.803 22.0838ZM154.947 19.531L153.382 19.2902L153.021 17.8452V6.30968L153.262 4.98514L154.947 4.72023H161.112L162.798 4.98514L163.039 6.40601V17.9416L162.702 19.2902L161.112 19.531H154.947Z" fill="#E4E7DF"></path>
</svg>